<svg xmlns="http://www.w3.org/2000/svg" width="256" height="256"><path fill-opacity=".016" d="M0 128.004v128.004l128.25-.254 128.25-.254.254-127.75L257.008 0H0v128.004m.485.496c0 70.4.119 99.053.265 63.672.146-35.38.146-92.98 0-128C.604 29.153.485 58.1.485 128.5" fill="#1976D2" fill-rule="evenodd"/><path fill-opacity=".139" d="M1.655 1.457C.558 4.316.924 11.523 2.25 13.172c.827 1.028 4.4 1.923 10.558 2.645C23.987 17.128 27.974 19.25 31 25.499c4.405 9.101 4.365 3.131 1.026 152.001-.741 33.036-1.275 43.105-2.501 47.175-2.568 8.531-8.879 12.308-20.584 12.319-7.904.008-9.124 1.198-8.748 8.534L.5 251.5l9.5-.5c5.225-.275 17.375-.5 27-.5s21.55.225 26.5.5l9 .5.296-6.19c.353-7.383-.138-7.806-9.931-8.554-7.917-.605-12.179-2.856-14.599-7.712C46.717 225.935 46.5 222.37 46.5 200c0-37.228 1.639-131.788 2.372-136.8.577-3.952 3.223 3.32 32.567 89.5 17.566 51.59 32.737 95.712 33.714 98.05 2.201 5.268 5.934 5.952 8.188 1.5.766-1.512 17.06-50.104 36.21-107.982 19.151-57.877 35.035-105.016 35.298-104.752.598.598 4.029 139.985 4.097 166.484.044 16.644-.205 20.008-1.698 22.966-2.581 5.117-6.867 7.133-16.503 7.762-11.099.724-11.749 1.143-11.73 7.557.025 8.29-.224 8.177 15.134 6.857 16.998-1.461 39.657-1.465 56.586-.01 10.502.903 13.548.878 14.75-.12 1.933-1.604 2.16-12.588.265-12.855-.687-.098-4.4-.557-8.25-1.021-11.252-1.357-16.82-4.672-19.538-11.636-.784-2.01-1.606-21.819-2.49-60-.726-31.35-1.591-68.475-1.922-82.5-.969-41.05-.875-54.217.413-57.498 2.645-6.741 7.167-9.348 18.134-10.454 10.12-1.02 11.075-1.82 10.698-8.958L252.5.5l-5 .088c-2.75.048-10.502.454-17.226.902-8.504.567-15.93.414-24.393-.503-11.205-1.213-12.264-1.183-13.408.38-.683.934-15.74 45.428-33.461 98.876l-32.22 97.179L93.385 99.5C75.012 45.643 59.571 1.171 59.073.673c-.54-.54-5.782-.395-13.007.361C34.761 2.217 24.941 2.043 8.405.368 3.226-.157 2.211.007 1.655 1.457M.32 245c0 3.575.182 5.037.403 3.25.222-1.787.222-4.713 0-6.5-.221-1.787-.403-.325-.403 3.25" fill="#1976D2" fill-rule="evenodd"/><path fill-opacity=".532" d="M2.75.575C2.337.992 2 4.175 2 7.648c0 7.209-.555 6.829 11.331 7.758 7.514.587 13.757 3.405 16.821 7.594 1.006 1.375 2.587 5.595 3.514 9.379 1.581 6.456 1.577 12.231-.066 94-.964 47.916-2.151 89.762-2.639 92.99-1.904 12.585-6.089 16.352-19.762 17.789-4.784.503-9.261 1.109-9.949 1.347-1.431.495-1.726 10.196-.374 12.329.685 1.079 2.634 1.136 10.235.294 18.82-2.082 25.665-2.259 39.889-1.031 7.975.689 16.075 1.286 18 1.328l3.5.075.298-6.263c.343-7.212.845-6.808-10.082-8.118-9.394-1.127-12.249-2.831-14.998-8.953-1.964-4.376-2.081-6.188-1.876-29.166.12-13.475.648-45.2 1.173-70.5.525-25.3.975-52.075 1-59.5.027-7.922.396-12.88.894-12 .466.825 15.345 44.01 33.064 95.967s32.908 96.193 33.752 98.304c1.299 3.246 1.939 3.79 4.155 3.533 2.551-.296 3.576-3.183 38.945-109.646 19.978-60.138 36.463-109.188 36.632-109 .169.188.595 16.092.946 35.342s.844 39.5 1.097 45 .697 23.5.988 40c.29 16.5.799 37.222 1.132 46.049.756 20.051-.26 26.05-5.138 30.333-2.224 1.952-4.881 3.166-7.69 3.513-2.361.292-6.992.885-10.292 1.318l-6 .787v13l3.5-.07c1.925-.038 11.375-.631 21-1.317 17.106-1.22 27.782-1 48.972 1.008 12.303 1.166 13.028.743 13.028-7.594 0-4.557-.236-5.11-2.25-5.277-19.891-1.649-25.888-5.311-27.819-16.986-1.3-7.86-5.113-188.857-4.072-193.288 2.067-8.794 6.448-11.806 19.515-13.417l9.126-1.125.299-6.86.299-6.861-5.799.743c-16.879 2.164-31.016 2.187-47.347.08-5.182-.669-5.619-.562-6.609 1.624-.584 1.287-15.353 45.315-32.821 97.84-17.467 52.525-32.083 95.855-32.479 96.288-.396.434-15.031-41.191-32.523-92.5C77.028 52.48 61.829 8.086 60.744 5.136L58.771-.227l-5.135.722C38.494 2.623 23.602 2.631 8.5.517 5.75.132 3.163.158 2.75.575M.31 244.5c.005 3.3.192 4.529.415 2.732.222-1.797.218-4.497-.01-6-.229-1.503-.411-.032-.405 3.268" fill="#1976D2" fill-rule="evenodd"/><path fill-opacity=".288" d="M2.743.59c-1.037 1.037-.934 12.174.119 12.825.474.292 4.727.971 9.452 1.508s9.908 1.658 11.519 2.491c4.44 2.296 7.964 7.096 9.84 13.403 1.942 6.527 1.97 13.287.372 90.683-2.128 103.076-2.079 102.25-6.366 108.688-3.069 4.609-7.872 6.654-17.724 7.546L1.5 238.5v6.5c0 6.325.067 6.494 2.5 6.282 1.375-.12 7.16-.682 12.856-1.25a196.722 196.722 0 0139.288 0c5.696.568 11.475 1.13 12.843 1.25 2.091.183 2.632-.358 3.393-3.395 1.021-4.071.177-8.802-1.66-9.311-.671-.185-4.81-.803-9.197-1.371-7.221-.935-8.279-1.362-11.155-4.5-5.627-6.141-5.63-6.212-3.897-95.797.865-44.707 1.737-81.45 1.938-81.651.202-.201 1.034 1.571 1.85 3.939.817 2.367 15.769 46.154 33.227 97.304 17.459 51.15 32.378 94.238 33.154 95.75 1.512 2.946 3.483 3.521 5.139 1.5.738-.901 48.827-144.649 72.81-217.643.252-.766.618-1.216.814-1 .428.473 1.378 31.427 2.099 68.393.29 14.85.737 32.175.993 38.5.256 6.325.736 27.475 1.066 47l.6 35.5-2.33 4.442c-3.069 5.85-7.085 7.769-18.331 8.763l-9 .795v6.5c0 5.76.215 6.482 1.886 6.338 31.226-2.675 53.916-2.809 74.114-.439 4.369.513 7.47.452 8.25-.161 1.623-1.276 1.623-10.199 0-11.479-.687-.542-4.269-1.253-7.958-1.581-10.924-.969-17.518-5.484-19.783-13.544-1.291-4.595-5.587-188.805-4.562-195.633 1.369-9.124 9.783-14.469 22.852-14.516 6.212-.023 6.856-.773 6.506-7.578-.352-6.824 1.42-6.347-16.305-4.393-10.888 1.2-23.769.814-35.265-1.057-3.31-.539-6.025-.543-6.661-.01-.591.495-15.699 45.015-33.574 98.934s-32.77 98.054-33.101 98.077c-.331.023-15.586-43.945-33.9-97.708S59.183 1.932 58.552 1.238c-.86-.945-2.393-1.027-6.1-.326C39.484 3.364 20.085 3.167 6.476.445 4.832.116 3.152.182 2.743.59" fill="#1976D2" fill-rule="evenodd"/></svg>