<?xml version="1.0" encoding="utf-8"?>
<!-- Generator: Adobe Illustrator 23.0.1, SVG Export Plug-In . SVG Version: 6.00 Build 0)  -->
<svg version="1.1" id="Layer_1" xmlns="http://www.w3.org/2000/svg" xmlns:xlink="http://www.w3.org/1999/xlink" x="0px" y="0px"
	 width="300px" height="150px" viewBox="0 0 300 150" style="enable-background:new 0 0 300 150;" xml:space="preserve">
<style type="text/css">
	.st0{fill:#FFFFFF;}
</style>
<path class="st0" d="M29.67,75.34c-0.01,1.17,0.14,2,0.45,2.51c0.31,0.51,0.88,0.79,1.69,0.85l1.18,0.1
	c0.17,0.02,0.29,0.06,0.34,0.13c0.06,0.07,0.09,0.22,0.09,0.44v0.78c0,0.24-0.03,0.4-0.1,0.48c-0.07,0.08-0.19,0.11-0.38,0.09
	c-1.73-0.23-3.22-0.35-4.47-0.35c-1.27,0-2.78,0.12-4.51,0.35c-0.2,0.02-0.33-0.02-0.4-0.09c-0.07-0.08-0.1-0.24-0.1-0.48v-0.78
	c0-0.22,0.03-0.37,0.1-0.44c0.06-0.07,0.2-0.11,0.4-0.13l1.31-0.1c0.89-0.05,1.52-0.34,1.9-0.87c0.38-0.53,0.58-1.42,0.61-2.67
	l0.47-22.08c0.03-1.65-0.17-2.83-0.59-3.54c-0.42-0.71-1.18-1.11-2.28-1.19l-1.16-0.1c-0.23-0.02-0.38-0.06-0.45-0.14
	c-0.07-0.08-0.11-0.23-0.11-0.45v-0.83c0-0.25,0.03-0.42,0.1-0.5c0.06-0.08,0.19-0.11,0.4-0.09c1.36,0.23,2.53,0.35,3.52,0.35
	c0.97,0,2.15-0.12,3.52-0.35c0.13,0,0.22,0.02,0.28,0.07c0.06,0.05,0.11,0.15,0.17,0.31l9.16,26.83h-0.03l8.81-26.54
	c0.1-0.27,0.19-0.45,0.27-0.54c0.08-0.09,0.19-0.13,0.33-0.13c1.42,0.23,2.64,0.35,3.65,0.35c1.03,0,2.25-0.12,3.67-0.35
	c0.18-0.02,0.31,0.01,0.37,0.08c0.06,0.07,0.1,0.23,0.1,0.49v0.78c0,0.21-0.03,0.35-0.1,0.42c-0.06,0.07-0.19,0.12-0.37,0.15
	l-1.32,0.1c-0.89,0.13-1.51,0.42-1.87,0.88c-0.35,0.46-0.52,1.18-0.49,2.17l0.55,24.34c0.01,0.98,0.2,1.69,0.56,2.15
	c0.36,0.46,0.97,0.76,1.81,0.9l1.26,0.1c0.18,0.03,0.31,0.08,0.36,0.15c0.06,0.07,0.08,0.21,0.08,0.42v0.78
	c0,0.24-0.03,0.4-0.1,0.48c-0.06,0.08-0.19,0.11-0.37,0.09c-2.11-0.23-3.93-0.35-5.45-0.35c-1.53,0-3.34,0.12-5.43,0.35
	c-0.19,0.02-0.31-0.02-0.38-0.09c-0.06-0.08-0.09-0.24-0.09-0.48v-0.78c0-0.22,0.03-0.37,0.09-0.44s0.19-0.11,0.37-0.13l1.32-0.1
	c0.9-0.05,1.52-0.3,1.87-0.76c0.35-0.46,0.51-1.22,0.48-2.29l-0.58-24.63H50.2l-9.67,29.13c-0.16,0.46-0.27,0.74-0.34,0.85
	c-0.07,0.1-0.19,0.16-0.36,0.16H39.8c-0.17,0-0.29-0.05-0.35-0.16c-0.06-0.1-0.18-0.39-0.35-0.85l-9.01-26.4h-0.02L29.67,75.34z
	 M65.83,76.1c-0.27,0.94-0.62,1.64-1.05,2.11c-0.44,0.46-1.04,0.78-1.8,0.93l-1.09,0.09c-0.17,0.03-0.29,0.09-0.34,0.17
	c-0.06,0.08-0.08,0.21-0.08,0.4v0.78c0,0.25,0.03,0.42,0.1,0.49c0.06,0.07,0.19,0.1,0.38,0.08c1.7-0.23,3.16-0.35,4.39-0.35
	c1.23,0,2.69,0.12,4.39,0.35c0.19,0.02,0.31-0.01,0.37-0.09c0.06-0.08,0.1-0.24,0.1-0.48V79.8c0-0.19-0.03-0.33-0.1-0.4
	c-0.07-0.08-0.2-0.14-0.42-0.17l-1.28-0.09c-0.85-0.19-1.39-0.58-1.59-1.17c-0.21-0.59-0.13-1.52,0.25-2.8l2.12-7.66h9.39l2.67,8.59
	c0.3,0.94,0.36,1.64,0.18,2.11c-0.18,0.46-0.64,0.77-1.38,0.93l-1.09,0.09c-0.19,0.05-0.32,0.11-0.39,0.19
	c-0.07,0.08-0.1,0.21-0.1,0.38v0.78c0,0.25,0.03,0.42,0.1,0.49c0.07,0.07,0.2,0.1,0.39,0.08c1.93-0.23,3.6-0.35,5.01-0.35
	c1.4,0,3.05,0.12,4.96,0.35c0.21,0.02,0.36-0.01,0.43-0.09c0.07-0.08,0.11-0.25,0.11-0.52v-0.69c0-0.22-0.04-0.38-0.11-0.46
	c-0.07-0.09-0.21-0.14-0.43-0.16l-0.98-0.09c-0.66-0.06-1.19-0.32-1.59-0.78c-0.41-0.45-0.8-1.21-1.17-2.26l-9.59-29.3
	c-0.07-0.22-0.13-0.35-0.19-0.37c-0.06-0.02-0.17,0.03-0.34,0.16l-0.89,0.62l-1.24,0.89L65.83,76.1 M74.59,51.46h-0.01l4.39,14.04
	h-8.27L74.59,51.46z M97.59,76.09c0,0.98-0.18,1.69-0.53,2.14c-0.37,0.46-1,0.77-1.9,0.91l-1.3,0.1c-0.18,0.03-0.31,0.08-0.38,0.15
	c-0.07,0.07-0.11,0.21-0.11,0.42v0.78c0,0.24,0.04,0.4,0.11,0.48c0.07,0.08,0.2,0.11,0.38,0.09c2.13-0.23,3.97-0.35,5.52-0.35
	c1.56,0,3.42,0.12,5.57,0.35c0.18,0.02,0.31-0.01,0.37-0.08c0.06-0.07,0.1-0.23,0.1-0.49V79.8c0-0.21-0.03-0.35-0.1-0.43
	c-0.06-0.08-0.19-0.13-0.37-0.14l-1.32-0.1c-0.9-0.05-1.53-0.3-1.89-0.76c-0.36-0.46-0.54-1.22-0.54-2.29V63.92h0.53
	c1.44,0,2.52,0.31,3.25,0.94c0.73,0.63,1.72,2.1,2.97,4.42l5.37,9.84c0.43,0.75,0.8,1.28,1.13,1.58c0.32,0.3,0.67,0.46,1.04,0.46
	c0.41,0,0.77-0.04,1.06-0.11c0.29-0.07,0.65-0.11,1.06-0.11l2.61,0.22c0.21,0.02,0.35-0.02,0.42-0.11c0.06-0.09,0.1-0.26,0.1-0.51
	v-0.69c0-0.22-0.03-0.38-0.1-0.46c-0.07-0.09-0.2-0.14-0.42-0.15l-1.01-0.1c-0.64-0.07-1.22-0.33-1.72-0.78
	c-0.51-0.46-1.04-1.22-1.61-2.27l-5.09-9.4c-0.94-1.75-2.06-2.98-3.36-3.7c1.43-0.41,2.7-1.04,3.81-1.89
	c2.18-1.66,3.27-3.75,3.27-6.28c0-2.34-0.83-4.26-2.49-5.78c-1.66-1.51-3.78-2.27-6.36-2.27l-6.05,0.26H99.4h-2.16l-3.38-0.35
	c-0.19-0.02-0.31,0.02-0.38,0.09c-0.07,0.08-0.11,0.24-0.11,0.48v0.78c0,0.21,0.04,0.35,0.11,0.43c0.07,0.08,0.2,0.13,0.38,0.14h1.3
	c0.9,0.1,1.53,0.38,1.89,0.84c0.36,0.46,0.54,1.23,0.54,2.31V76.09 M101.19,52.56c0-1.41,0.2-2.36,0.61-2.85
	c0.41-0.49,1.19-0.71,2.34-0.67c1.89,0.08,3.4,0.64,4.52,1.69c1.18,1.14,1.77,2.72,1.77,4.73c0,1.95-0.66,3.51-1.97,4.67
	c-1.31,1.16-3.07,1.75-5.28,1.75c-0.69,0-1.35-0.08-1.98-0.24V52.56z M127.23,76.1c-0.27,0.94-0.62,1.64-1.05,2.11
	c-0.44,0.46-1.04,0.78-1.8,0.93l-1.09,0.09c-0.17,0.03-0.29,0.09-0.34,0.17c-0.06,0.08-0.08,0.21-0.08,0.4v0.78
	c0,0.25,0.03,0.42,0.1,0.49c0.06,0.07,0.19,0.1,0.38,0.08c1.7-0.23,3.16-0.35,4.39-0.35c1.23,0,2.69,0.12,4.39,0.35
	c0.19,0.02,0.31-0.01,0.37-0.09c0.06-0.08,0.1-0.24,0.1-0.48V79.8c0-0.19-0.03-0.33-0.1-0.4c-0.07-0.08-0.2-0.14-0.42-0.17
	l-1.28-0.09c-0.85-0.19-1.39-0.58-1.59-1.17c-0.21-0.59-0.13-1.52,0.25-2.8l2.12-7.66h9.39l2.67,8.59c0.3,0.94,0.36,1.64,0.18,2.11
	c-0.18,0.46-0.64,0.77-1.38,0.93l-1.09,0.09c-0.19,0.05-0.32,0.11-0.39,0.19c-0.07,0.08-0.1,0.21-0.1,0.38v0.78
	c0,0.25,0.03,0.42,0.1,0.49c0.07,0.07,0.2,0.1,0.39,0.08c1.93-0.23,3.6-0.35,5.01-0.35c1.4,0,3.05,0.12,4.96,0.35
	c0.21,0.02,0.36-0.01,0.43-0.09c0.07-0.08,0.11-0.25,0.11-0.52v-0.69c0-0.22-0.04-0.38-0.11-0.46c-0.07-0.09-0.21-0.14-0.43-0.16
	l-0.98-0.09c-0.66-0.06-1.19-0.32-1.6-0.78c-0.41-0.45-0.8-1.21-1.17-2.26l-9.59-29.3c-0.07-0.22-0.13-0.35-0.19-0.37
	c-0.06-0.02-0.17,0.03-0.34,0.16l-0.89,0.62l-1.24,0.89L127.23,76.1 M135.99,51.46h-0.01l4.39,14.04h-8.27L135.99,51.46z
	 M159.65,76.09c0,0.99-0.18,1.71-0.53,2.16c-0.35,0.46-0.96,0.76-1.81,0.89l-1.28,0.1c-0.19,0.03-0.31,0.08-0.36,0.15
	c-0.06,0.07-0.08,0.21-0.08,0.42v0.78c0,0.24,0.03,0.4,0.09,0.48c0.06,0.08,0.19,0.11,0.37,0.09c2.09-0.23,3.88-0.35,5.39-0.35
	c1.52,0,3.32,0.12,5.41,0.35c0.18,0.02,0.31-0.02,0.37-0.09c0.06-0.08,0.1-0.24,0.1-0.48V79.8c0-0.21-0.03-0.35-0.09-0.42
	c-0.06-0.07-0.18-0.12-0.36-0.15l-1.28-0.1c-0.85-0.13-1.46-0.42-1.81-0.88c-0.35-0.46-0.53-1.18-0.53-2.18V49.04h6.12
	c0.85,0,1.44,0.35,1.76,1.04c0.32,0.69,0.46,1.89,0.41,3.59c0.01,0.2,0.05,0.33,0.13,0.41c0.07,0.08,0.19,0.12,0.36,0.12h0.59
	c0.15,0,0.26-0.04,0.33-0.12c0.06-0.08,0.09-0.22,0.09-0.41c0.09-1.6,0.19-2.98,0.3-4.13c0.12-1.15,0.3-2.51,0.56-4.08
	c0-0.22-0.04-0.38-0.12-0.48c-0.08-0.1-0.21-0.14-0.4-0.14h-0.68c-0.1,0-0.19,0.05-0.27,0.14c-0.08,0.09-0.16,0.25-0.25,0.47h-0.09
	c-0.21,0.63-0.65,1.05-1.32,1.26c-0.67,0.21-1.9,0.32-3.7,0.32h-12.74c-1.34,0-2.26-0.1-2.75-0.32c-0.49-0.21-0.79-0.63-0.92-1.26
	h-0.09c-0.04-0.22-0.1-0.38-0.19-0.47c-0.08-0.09-0.19-0.14-0.34-0.14h-0.68c-0.19,0-0.32,0.05-0.4,0.14
	c-0.08,0.1-0.12,0.26-0.12,0.48c0,1.59-0.03,2.95-0.09,4.1c-0.04,1.15-0.15,2.52-0.3,4.11c0,0.19,0.03,0.33,0.1,0.41
	c0.06,0.08,0.17,0.12,0.33,0.12h0.6c0.13,0,0.23-0.04,0.3-0.12c0.07-0.08,0.13-0.22,0.17-0.41c0.2-1.7,0.63-2.9,1.28-3.59
	c0.65-0.69,1.68-1.04,3.1-1.04h5.33V76.09 M181.11,76.09c0,0.99-0.18,1.71-0.53,2.16c-0.37,0.46-1,0.76-1.9,0.89l-1.32,0.1
	c-0.19,0.03-0.31,0.08-0.37,0.15s-0.1,0.21-0.1,0.42v0.78c0,0.24,0.03,0.4,0.1,0.48c0.06,0.08,0.19,0.11,0.37,0.09
	c2.15-0.23,4-0.35,5.56-0.35c1.55,0,3.4,0.12,5.56,0.35c0.18,0.02,0.31-0.02,0.37-0.09c0.06-0.08,0.1-0.24,0.1-0.48V79.8
	c0-0.22-0.03-0.37-0.1-0.44c-0.06-0.07-0.19-0.11-0.37-0.13l-1.3-0.1c-0.91-0.05-1.55-0.3-1.91-0.76c-0.36-0.46-0.54-1.22-0.54-2.3
	V63.57h16.9v12.51c0,1.07-0.18,1.84-0.54,2.3c-0.36,0.46-1,0.71-1.91,0.76l-1.3,0.1c-0.18,0.02-0.31,0.06-0.37,0.13
	c-0.06,0.07-0.1,0.22-0.1,0.44v0.78c0,0.24,0.03,0.4,0.1,0.48c0.06,0.08,0.19,0.11,0.37,0.09c2.15-0.23,4-0.35,5.54-0.35
	c1.57,0,3.42,0.12,5.58,0.35c0.18,0.02,0.31-0.02,0.37-0.09c0.06-0.08,0.1-0.24,0.1-0.48V79.8c0-0.21-0.03-0.35-0.1-0.42
	c-0.06-0.07-0.19-0.12-0.37-0.15l-1.32-0.1c-0.9-0.13-1.53-0.42-1.89-0.88c-0.36-0.46-0.54-1.18-0.54-2.17V51.75
	c0-0.99,0.18-1.72,0.54-2.17c0.36-0.46,0.99-0.75,1.89-0.88l1.32-0.1c0.18-0.03,0.31-0.08,0.37-0.15c0.06-0.07,0.1-0.21,0.1-0.42
	v-0.78c0-0.24-0.03-0.4-0.1-0.48c-0.06-0.08-0.19-0.11-0.37-0.09c-2.15,0.23-4,0.35-5.56,0.35c-1.55,0-3.4-0.12-5.56-0.35
	c-0.18-0.02-0.31,0.02-0.37,0.09c-0.06,0.08-0.1,0.24-0.1,0.48v0.78c0,0.22,0.03,0.37,0.1,0.44c0.06,0.07,0.19,0.11,0.37,0.13
	l1.3,0.1c0.91,0.05,1.55,0.3,1.91,0.76c0.36,0.46,0.54,1.22,0.54,2.29v9.81h-16.9v-9.81c0-1.07,0.18-1.83,0.54-2.29
	c0.36-0.46,1-0.71,1.91-0.76l1.3-0.1c0.18-0.02,0.31-0.06,0.37-0.13c0.06-0.07,0.1-0.22,0.1-0.44v-0.78c0-0.24-0.03-0.4-0.1-0.48
	c-0.06-0.08-0.19-0.11-0.37-0.09c-2.15,0.23-4,0.35-5.54,0.35c-1.57,0-3.43-0.12-5.58-0.35c-0.19-0.02-0.31,0.02-0.37,0.09
	c-0.06,0.08-0.1,0.24-0.1,0.48v0.78c0,0.21,0.03,0.35,0.1,0.42s0.19,0.12,0.37,0.15l1.32,0.1c0.9,0.13,1.53,0.42,1.89,0.88
	c0.36,0.46,0.54,1.18,0.54,2.17V76.09 M214.93,76.31c2.85,3.23,6.34,4.85,10.47,4.85c4.52,0,8.35-1.79,11.47-5.36
	c3.13-3.57,4.69-7.94,4.69-13.11c0-4.68-1.43-8.64-4.28-11.87c-2.85-3.23-6.35-4.84-10.49-4.84c-4.51,0-8.33,1.78-11.45,5.35
	c-3.13,3.57-4.69,7.94-4.69,13.11C210.65,69.12,212.07,73.08,214.93,76.31 M234.43,74.98c-2.04,2.78-4.67,4.17-7.89,4.17
	c-3.48,0-6.32-1.51-8.52-4.54c-2.2-3.02-3.3-6.92-3.3-11.7c0-4.39,1.01-7.97,3.05-10.75c2.03-2.78,4.65-4.17,7.86-4.17
	c3.51,0,6.36,1.51,8.56,4.53c2.2,3.02,3.3,6.92,3.3,11.7C237.49,68.61,236.47,72.19,234.43,74.98 M249.32,50.94l21.22,29.57
	c0.33,0.43,0.59,0.65,0.76,0.65h0.02c0.14,0,0.23-0.05,0.26-0.13c0.03-0.09,0.04-0.33,0.04-0.73V51.18c0-1.25,0.18-2.14,0.54-2.66
	c0.36-0.53,0.99-0.82,1.89-0.87l1.3-0.1c0.18-0.02,0.31-0.06,0.38-0.14c0.07-0.08,0.11-0.22,0.11-0.43V46.2
	c0-0.25-0.04-0.42-0.11-0.49c-0.07-0.07-0.2-0.1-0.38-0.08c-1.81,0.23-3.37,0.35-4.68,0.35s-2.87-0.12-4.68-0.35
	c-0.19-0.02-0.31,0.02-0.38,0.09c-0.06,0.08-0.1,0.24-0.1,0.48v0.78c0,0.22,0.03,0.37,0.1,0.44c0.06,0.07,0.19,0.11,0.37,0.13
	l1.32,0.1c0.9,0.05,1.53,0.33,1.89,0.83c0.36,0.51,0.54,1.35,0.54,2.54v21.54L250.97,46.3c-0.33-0.45-0.56-0.67-0.7-0.67
	c-1.43,0.23-2.66,0.35-3.68,0.35c-1.03,0-2.26-0.12-3.68-0.35c-0.21-0.02-0.36,0.02-0.43,0.1c-0.07,0.09-0.11,0.26-0.11,0.53v0.66
	c0,0.27,0.05,0.44,0.15,0.53c0.1,0.09,0.3,0.12,0.6,0.1h0.51c1.11-0.06,2.34,0.5,3.68,1.68l0.13,0.12v25.2
	c0,1.25-0.18,2.14-0.54,2.67c-0.36,0.53-1,0.82-1.91,0.87l-1.3,0.1c-0.19,0.02-0.31,0.06-0.37,0.13c-0.06,0.07-0.1,0.22-0.1,0.44
	v0.78c0,0.24,0.03,0.4,0.1,0.48c0.06,0.08,0.19,0.11,0.38,0.09c1.81-0.23,3.38-0.35,4.69-0.35c1.33,0,2.89,0.12,4.69,0.35
	c0.19,0.02,0.31-0.02,0.38-0.09c0.06-0.08,0.1-0.24,0.1-0.48v-0.78c0-0.22-0.03-0.37-0.1-0.44c-0.06-0.07-0.19-0.11-0.37-0.13
	l-1.3-0.1c-0.91-0.05-1.55-0.33-1.91-0.83c-0.36-0.51-0.54-1.35-0.54-2.54V50.94z M108.44,95.02c0.04,0,0.07-0.03,0.09-0.06
	c0.02-0.03,0.03-0.07,0.03-0.12l-0.08-1.97c-0.01-0.12-0.03-0.22-0.09-0.3c-0.05-0.08-0.14-0.15-0.24-0.21
	c-0.34-0.18-0.67-0.32-0.98-0.4c-0.41-0.11-0.89-0.16-1.44-0.16c-1.1,0-2.03,0.33-2.78,1c-0.76,0.66-1.14,1.48-1.14,2.44
	c0,0.91,0.27,1.68,0.81,2.32c0.55,0.63,1.43,1.2,2.66,1.68c0.75,0.3,1.3,0.63,1.65,0.98c0.35,0.35,0.53,0.75,0.53,1.2
	c0,0.66-0.21,1.17-0.64,1.53c-0.42,0.36-1.02,0.54-1.81,0.54c-0.56,0-1.08-0.23-1.56-0.69c-0.45-0.43-0.78-0.97-0.99-1.65
	c-0.02-0.05-0.04-0.08-0.08-0.1c-0.03-0.02-0.07-0.03-0.11-0.03l-0.35,0.06c-0.04,0.01-0.07,0.03-0.1,0.06
	c-0.03,0.03-0.04,0.07-0.03,0.12l0.2,2.08c0.01,0.09,0.03,0.16,0.07,0.21c0.03,0.06,0.09,0.1,0.15,0.14
	c0.39,0.21,0.76,0.36,1.11,0.46c0.42,0.11,0.9,0.16,1.46,0.16c1.33,0,2.39-0.34,3.17-1.01c0.78-0.68,1.17-1.59,1.17-2.74
	c0-0.86-0.24-1.59-0.72-2.17c-0.48-0.58-1.25-1.09-2.32-1.51c-0.91-0.36-1.57-0.74-2-1.14c-0.42-0.4-0.63-0.85-0.63-1.34
	c0-0.56,0.18-0.99,0.53-1.3c0.35-0.3,0.86-0.46,1.51-0.46c0.67,0,1.22,0.22,1.65,0.65c0.39,0.41,0.64,0.96,0.76,1.67
	c0.01,0.04,0.03,0.08,0.06,0.11c0.03,0.03,0.06,0.04,0.1,0.03L108.44,95.02z M112.7,101.62c0,0.6-0.06,1.03-0.19,1.28
	c-0.14,0.26-0.37,0.41-0.69,0.45l-0.52,0.06c-0.06,0.01-0.1,0.02-0.12,0.04c-0.02,0.02-0.03,0.06-0.03,0.12v0.4
	c0,0.07,0.02,0.12,0.06,0.14c0.04,0.02,0.12,0.03,0.24,0.02c0.9-0.05,1.68-0.08,2.33-0.08s1.43,0.03,2.33,0.08
	c0.12,0.01,0.2,0,0.24-0.02c0.04-0.02,0.06-0.07,0.06-0.14v-0.4c0-0.06-0.01-0.1-0.03-0.12c-0.02-0.02-0.06-0.04-0.12-0.04
	l-0.52-0.06c-0.32-0.04-0.55-0.19-0.68-0.45c-0.13-0.26-0.2-0.69-0.2-1.29v-7.15c0-0.6,0.07-1.03,0.2-1.29
	c0.13-0.26,0.36-0.41,0.68-0.45l0.52-0.06c0.06-0.01,0.1-0.02,0.12-0.04c0.02-0.02,0.03-0.06,0.03-0.12v-0.4
	c0-0.07-0.02-0.12-0.06-0.14c-0.04-0.02-0.12-0.03-0.24-0.02c-0.9,0.05-1.68,0.08-2.34,0.08c-0.65,0-1.43-0.03-2.33-0.08
	c-0.12-0.01-0.2,0-0.24,0.02c-0.04,0.02-0.06,0.07-0.06,0.14v0.4c0,0.06,0.01,0.1,0.03,0.12c0.02,0.02,0.06,0.04,0.12,0.04
	l0.52,0.06c0.32,0.04,0.55,0.19,0.68,0.45c0.13,0.26,0.2,0.69,0.2,1.29V101.62 M121.06,94.29l8.19,10.11
	c0.05,0.06,0.11,0.09,0.18,0.09h0.29c0.1,0,0.18-0.03,0.24-0.09c0.06-0.06,0.09-0.13,0.09-0.2c-0.04-0.37-0.05-1.08-0.05-2.14v-7.59
	c0-0.6,0.07-1.03,0.2-1.29c0.13-0.26,0.36-0.41,0.68-0.45l0.52-0.06c0.06-0.01,0.1-0.02,0.12-0.04c0.02-0.02,0.03-0.06,0.03-0.12
	v-0.4c0-0.07-0.02-0.12-0.06-0.14c-0.04-0.02-0.12-0.03-0.24-0.02c-0.65,0.05-1.22,0.08-1.69,0.08c-0.47,0-1.03-0.03-1.69-0.08
	c-0.13-0.01-0.21,0-0.25,0.02c-0.04,0.02-0.06,0.07-0.06,0.14v0.4c0,0.06,0.01,0.1,0.03,0.11c0.02,0.02,0.06,0.04,0.12,0.05
	l0.5,0.06c0.33,0.04,0.56,0.19,0.69,0.45c0.13,0.26,0.2,0.69,0.2,1.29v6.17h0l-6.26-7.7c-0.3-0.36-0.52-0.62-0.68-0.77
	c-0.16-0.15-0.28-0.22-0.36-0.22c-0.66,0.05-1.22,0.08-1.7,0.08c-0.48,0-1.05-0.03-1.71-0.08c-0.12-0.01-0.2,0-0.24,0.03
	c-0.04,0.02-0.06,0.07-0.06,0.14v0.4c0,0.06,0.01,0.1,0.04,0.12c0.02,0.02,0.08,0.04,0.17,0.04l0.67,0.06
	c0.43,0.03,0.74,0.18,0.91,0.44c0.18,0.26,0.26,0.69,0.26,1.3v7.15c0,0.6-0.07,1.03-0.2,1.29c-0.13,0.26-0.36,0.41-0.68,0.45
	l-0.51,0.06c-0.06,0.01-0.1,0.02-0.12,0.04c-0.02,0.02-0.03,0.06-0.03,0.12v0.4c0,0.07,0.02,0.12,0.06,0.14
	c0.04,0.02,0.12,0.03,0.24,0.02c0.65-0.05,1.22-0.08,1.69-0.08s1.04,0.03,1.69,0.08c0.13,0.01,0.21,0,0.25-0.02
	c0.04-0.02,0.06-0.07,0.06-0.14v-0.4c0-0.06-0.01-0.1-0.03-0.12c-0.02-0.02-0.06-0.04-0.13-0.04l-0.51-0.06
	c-0.32-0.04-0.55-0.19-0.68-0.45c-0.13-0.26-0.2-0.69-0.2-1.29V94.29z M144.01,100.71c-0.07-0.01-0.11-0.01-0.12,0
	c-0.01,0.01-0.04,0.06-0.07,0.15c-0.33,0.9-0.76,1.56-1.3,1.96c-0.58,0.43-1.37,0.65-2.37,0.65c-1.27,0-2.35-0.53-3.23-1.59
	c-0.88-1.06-1.32-2.36-1.32-3.89c0-1.61,0.4-2.91,1.2-3.9c0.8-0.98,1.86-1.48,3.17-1.48c0.74,0,1.43,0.24,2.05,0.73
	c0.59,0.46,1.07,1.09,1.45,1.9c0.02,0.05,0.05,0.08,0.09,0.1c0.04,0.02,0.08,0.03,0.11,0.03l0.35-0.06
	c0.04-0.01,0.06-0.03,0.09-0.06c0.02-0.03,0.03-0.07,0.03-0.12l-0.37-2.35c-0.02-0.08-0.05-0.15-0.09-0.2
	c-0.04-0.05-0.1-0.09-0.18-0.12c-0.62-0.24-1.18-0.41-1.68-0.51c-0.55-0.11-1.21-0.16-1.98-0.16c-1.95,0-3.52,0.6-4.72,1.81
	c-1.2,1.21-1.79,2.8-1.79,4.78c0,1.77,0.62,3.2,1.86,4.28c1.24,1.08,2.88,1.62,4.9,1.62c0.77,0,1.43-0.06,1.97-0.17
	c0.49-0.1,1.03-0.28,1.62-0.53c0.08-0.04,0.14-0.08,0.18-0.13c0.04-0.05,0.07-0.11,0.09-0.19l0.52-2.33
	c0.01-0.04,0.01-0.08-0.01-0.11c-0.02-0.03-0.05-0.05-0.09-0.06L144.01,100.71z M148.53,104.07h1.51h-0.91l6.14,0.08
	c0.06,0,0.12-0.08,0.17-0.23l0.37-1.16l0.36-1.15c0.02-0.05,0.01-0.09-0.01-0.13c-0.02-0.04-0.05-0.07-0.09-0.08l-0.33-0.1
	c-0.03-0.01-0.06-0.01-0.1,0.01c-0.04,0.02-0.07,0.05-0.09,0.09l-0.27,0.59c-0.23,0.47-0.58,0.8-1.06,0.99
	c-0.48,0.19-1.19,0.29-2.13,0.29h-0.53c-0.71,0-1.15-0.08-1.3-0.24c-0.15-0.16-0.23-0.62-0.23-1.37V98.2h1.95
	c0.32,0,0.56,0.06,0.72,0.19c0.16,0.13,0.28,0.34,0.35,0.65l0.11,0.48c0.01,0.05,0.03,0.09,0.07,0.12c0.03,0.03,0.07,0.05,0.09,0.05
	h0.37c0.04,0,0.08-0.02,0.11-0.05c0.03-0.03,0.05-0.07,0.05-0.12c-0.08-0.67-0.12-1.24-0.12-1.72c0-0.48,0.04-1.06,0.12-1.73
	c0-0.04-0.02-0.09-0.05-0.12c-0.03-0.03-0.07-0.05-0.11-0.05h-0.37c-0.03,0-0.06,0.02-0.09,0.05c-0.04,0.03-0.06,0.08-0.07,0.12
	l-0.11,0.48c-0.07,0.31-0.19,0.52-0.35,0.65c-0.16,0.13-0.4,0.19-0.72,0.19h-1.95v-3.15c0-0.55,0.09-0.92,0.26-1.11
	c0.18-0.19,0.52-0.28,1.04-0.28h0.64c0.76,0,1.31,0.09,1.65,0.27c0.34,0.18,0.54,0.49,0.62,0.94l0.11,0.69
	c0.01,0.05,0.02,0.08,0.05,0.11c0.03,0.03,0.06,0.04,0.09,0.04h0.34c0.04,0,0.08-0.01,0.11-0.04c0.02-0.03,0.04-0.07,0.04-0.11
	v-1.28v-1.27c0-0.09-0.01-0.15-0.04-0.18c-0.03-0.03-0.07-0.05-0.13-0.05l-5.63,0.08h0.86h-1.43l-1.99-0.08
	c-0.12-0.01-0.2,0-0.25,0.02c-0.04,0.02-0.06,0.07-0.06,0.14v0.4c0,0.06,0.01,0.1,0.04,0.12c0.02,0.02,0.06,0.04,0.12,0.04
	l0.51,0.06c0.32,0.04,0.55,0.19,0.68,0.45c0.13,0.26,0.2,0.69,0.2,1.29v7.15c0,0.6-0.07,1.03-0.2,1.28
	c-0.13,0.26-0.36,0.41-0.68,0.45l-0.51,0.06c-0.06,0.01-0.1,0.02-0.12,0.04c-0.02,0.02-0.04,0.06-0.04,0.12v0.4
	c0,0.07,0.02,0.12,0.06,0.14c0.04,0.02,0.13,0.03,0.25,0.02L148.53,104.07z M166.08,101.46c0,0.61-0.05,1.04-0.16,1.29
	c-0.11,0.26-0.29,0.41-0.55,0.45l-0.41,0.06c-0.06,0.01-0.1,0.03-0.12,0.06c-0.02,0.03-0.03,0.07-0.03,0.14v0.49
	c0,0.09,0.02,0.15,0.07,0.17c0.05,0.03,0.15,0.03,0.29,0.02c0.7-0.05,1.3-0.08,1.8-0.08c0.5,0,1.1,0.03,1.79,0.08
	c0.15,0.01,0.25,0.01,0.29-0.02c0.05-0.03,0.07-0.08,0.07-0.17v-0.49c0-0.07-0.01-0.11-0.03-0.14c-0.02-0.03-0.06-0.04-0.12-0.06
	l-0.41-0.06c-0.26-0.03-0.44-0.18-0.55-0.44c-0.11-0.26-0.16-0.69-0.16-1.3v-9.01c0-0.07-0.01-0.12-0.03-0.15
	c-0.02-0.03-0.07-0.04-0.14-0.04h-0.53c-0.17,0-0.29,0.02-0.35,0.04c-0.06,0.03-0.16,0.11-0.31,0.26c-0.4,0.41-0.76,0.76-1.09,1.04
	c-0.36,0.31-0.81,0.67-1.33,1.07c-0.05,0.04-0.08,0.08-0.09,0.13c-0.01,0.05,0,0.1,0.03,0.14l0.25,0.3
	c0.03,0.04,0.08,0.06,0.12,0.07c0.05,0.01,0.09-0.01,0.13-0.03l1.54-1.16V101.46 M172.56,95.55c0,0.56,0.2,1.13,0.6,1.7
	c0.32,0.45,0.75,0.9,1.3,1.35c-0.46,0.21-0.87,0.48-1.22,0.8c-0.64,0.59-0.97,1.24-0.97,1.97c0,0.82,0.32,1.52,0.95,2.08
	c0.64,0.57,1.41,0.85,2.33,0.85c0.92,0,1.7-0.32,2.33-0.95c0.63-0.64,0.95-1.41,0.95-2.33c0-0.66-0.22-1.31-0.67-1.97
	c-0.36-0.53-0.86-1.05-1.51-1.57c0.39-0.19,0.73-0.42,1.03-0.69c0.59-0.55,0.89-1.16,0.89-1.82c0-0.75-0.29-1.39-0.88-1.91
	c-0.58-0.52-1.3-0.78-2.14-0.78c-0.85,0-1.56,0.32-2.15,0.95C172.85,93.85,172.56,94.63,172.56,95.55 M173.84,101.18
	c0-0.57,0.21-1.1,0.62-1.6c0.16-0.19,0.36-0.38,0.57-0.56c0.63,0.46,1.11,0.92,1.44,1.39c0.33,0.46,0.5,0.91,0.5,1.35
	c0,0.48-0.15,0.89-0.46,1.22c-0.31,0.33-0.68,0.5-1.11,0.5c-0.43,0-0.8-0.22-1.1-0.66C173.99,102.36,173.84,101.82,173.84,101.18
	 M177.13,95.13c0,0.59-0.19,1.11-0.57,1.57l-0.38,0.39c-0.55-0.4-0.96-0.82-1.24-1.27c-0.28-0.44-0.42-0.9-0.42-1.37
	c0-0.38,0.13-0.71,0.38-0.97c0.25-0.27,0.56-0.4,0.92-0.4c0.37,0,0.67,0.2,0.92,0.6C177.01,94.08,177.13,94.56,177.13,95.13
	 M182.95,104.19c1.7-0.95,2.94-2,3.71-3.17c0.8-1.22,1.2-2.71,1.21-4.47c0-1.31-0.32-2.36-0.96-3.13c-0.64-0.78-1.51-1.16-2.61-1.16
	c-0.89,0-1.63,0.37-2.24,1.11c-0.61,0.74-0.92,1.64-0.92,2.71c0,0.87,0.25,1.61,0.74,2.22c0.5,0.61,1.1,0.91,1.82,0.91
	c0.83,0,1.55-0.4,2.17-1.21c-0.07,1.23-0.33,2.25-0.78,3.08c-0.52,0.96-1.35,1.77-2.49,2.42c-0.06,0.03-0.1,0.07-0.12,0.13
	c-0.02,0.06-0.02,0.11,0.01,0.16l0.15,0.35c0.03,0.05,0.07,0.08,0.12,0.09C182.84,104.23,182.89,104.22,182.95,104.19 M184.45,93.1
	c0.52,0,0.89,0.32,1.12,0.95c0.23,0.63,0.35,1.66,0.35,3.08l0.03,0.01c-0.4,0.58-0.86,0.86-1.38,0.85c-0.44,0-0.79-0.23-1.06-0.68
	c-0.27-0.46-0.4-1.05-0.4-1.8c0-0.66,0.13-1.22,0.4-1.7C183.76,93.34,184.08,93.1,184.45,93.1 M190.48,103.91
	c-0.02,0.04-0.03,0.08-0.02,0.13c0.01,0.04,0.03,0.08,0.07,0.1l0.64,0.38c0.04,0.02,0.08,0.03,0.12,0.02s0.07-0.04,0.1-0.08
	l3.64-6.94c0.55-1.04,1.07-1.98,1.55-2.84c0.43-0.79,0.73-1.3,0.89-1.53c0.02-0.04,0.03-0.12,0.03-0.23v-0.12v-0.12
	c0-0.05-0.02-0.09-0.05-0.12c-0.03-0.03-0.07-0.05-0.12-0.05h-6.04c-0.06,0-0.12,0.02-0.18,0.06c-0.05,0.04-0.09,0.09-0.11,0.15
	l-0.55,1.64c-0.02,0.06-0.02,0.11,0,0.15c0.03,0.04,0.07,0.06,0.13,0.06h4.36c0.18,0,0.28,0.03,0.31,0.08
	c0.03,0.05,0,0.16-0.09,0.32L190.48,103.91"/>
</svg>
